<?xml version="1.0" encoding="UTF-8"?>
<svg version="1.1" xmlns="http://www.w3.org/2000/svg" width="121" height="157">
<path d="M0 0 C39.93 0 79.86 0 121 0 C121 51.81 121 103.62 121 157 C81.07 157 41.14 157 0 157 C0 105.19 0 53.38 0 0 Z " fill="#FDFEFE" transform="translate(0,0)"/>
<path d="M0 0 C6.99420652 5.48895985 10.62473224 12.79262625 11.73046875 21.52734375 C11.86366653 25.29611878 11.84682297 29.06131707 11.828125 32.83203125 C11.82671005 33.91114777 11.8252951 34.99026428 11.82383728 36.1020813 C11.81825719 39.53553077 11.8057083 42.96891411 11.79296875 46.40234375 C11.78795118 48.73567614 11.78338872 51.06900955 11.77929688 53.40234375 C11.76829427 59.11070242 11.75104331 64.81901188 11.73046875 70.52734375 C6.12046875 70.52734375 0.51046875 70.52734375 -5.26953125 70.52734375 C-5.28411377 69.04411621 -5.29869629 67.56088867 -5.3137207 66.03271484 C-5.37177574 60.51977663 -5.44900904 55.00724376 -5.53198242 49.49462891 C-5.56519771 47.11058134 -5.59324017 44.72645578 -5.6159668 42.34228516 C-5.64957443 38.91144636 -5.70189532 35.48132012 -5.7578125 32.05078125 C-5.76420242 30.98806 -5.77059235 29.92533875 -5.7771759 28.83041382 C-5.88538574 23.36046307 -6.08312209 19.19347602 -9.26953125 14.52734375 C-14.75460967 10.29926247 -19.3625401 8.80650027 -26.26953125 9.52734375 C-30.96947154 11.24462963 -33.47912624 13.39341041 -36.26953125 17.52734375 C-37.2419507 20.44460209 -37.42120944 22.41537814 -37.47485352 25.45776367 C-37.49479874 26.45857468 -37.51474396 27.45938568 -37.53529358 28.49052429 C-37.55200607 29.5687294 -37.56871857 30.64693451 -37.5859375 31.7578125 C-37.6067186 32.8633699 -37.62749969 33.96892731 -37.64891052 35.10798645 C-37.71435457 38.64354165 -37.77326728 42.17917181 -37.83203125 45.71484375 C-37.87522135 48.11003383 -37.91883579 50.5052163 -37.96289062 52.90039062 C-38.07003077 58.77596463 -38.17131293 64.65161411 -38.26953125 70.52734375 C-43.87953125 70.52734375 -49.48953125 70.52734375 -55.26953125 70.52734375 C-55.41878953 63.19914481 -55.52717992 55.87184703 -55.59912109 48.54248047 C-55.62913731 46.05371673 -55.66996383 43.56505737 -55.72216797 41.07666016 C-55.7956494 37.48183314 -55.82914141 33.88841453 -55.85546875 30.29296875 C-55.88643646 29.19559387 -55.91740417 28.09821899 -55.9493103 26.96759033 C-55.95327011 17.70393862 -53.21809096 10.06913014 -47.09017944 3.02056885 C-35.18497507 -8.7988351 -13.6967824 -8.88758514 0 0 Z " fill="#143459" transform="translate(101.26953125,55.47265625)"/>
<path d="M0 0 C5.61 0 11.22 0 17 0 C17.01458252 1.48322754 17.02916504 2.96645508 17.04418945 4.49462891 C17.10224449 10.00756712 17.17947779 15.52009999 17.26245117 21.03271484 C17.29566646 23.41676241 17.32370892 25.80088797 17.34643555 28.18505859 C17.38004318 31.61589739 17.43236407 35.04602363 17.48828125 38.4765625 C17.49467117 39.53928375 17.5010611 40.602005 17.50764465 41.69692993 C17.61917125 47.33454145 18.13703038 51.01828099 21 56 C21.2487793 58.33349609 21.2487793 58.33349609 21.07421875 60.5234375 C21.01943359 61.31621094 20.96464844 62.10898438 20.90820312 62.92578125 C20.83537109 63.73402344 20.76253906 64.54226562 20.6875 65.375 C20.62626953 66.20644531 20.56503906 67.03789063 20.50195312 67.89453125 C20.34981225 69.93087831 20.17699165 71.96566224 20 74 C11.64969674 71.47494346 7.25442273 67.18283936 3.04296875 59.63671875 C0.05709483 52.08816108 -0.27799039 44.65847333 -0.1953125 36.62109375 C-0.1924826 35.56841812 -0.18965271 34.51574249 -0.18673706 33.4311676 C-0.17562562 30.09982484 -0.15053798 26.76876023 -0.125 23.4375 C-0.11495852 21.16601953 -0.10583472 18.89453481 -0.09765625 16.62304688 C-0.07571592 11.0819256 -0.041249 5.54100981 0 0 Z " fill="#068DCE" transform="translate(21,13)"/>
<path d="M0 0 C5.61 0 11.22 0 17 0 C17 10.56 17 21.12 17 32 C11.39 32 5.78 32 0 32 C0 21.44 0 10.88 0 0 Z " fill="#048DCE" transform="translate(71,13)"/>
<path d="M0 0 C2.69990662 1.79993774 4.5418865 3.083773 6 6 C6.4375 8.8125 6.4375 8.8125 6 12 C2.79246179 15.67693404 2.79246179 15.67693404 0 17 C-3.53137401 17 -5.83334467 16.89262698 -8.6796875 14.71484375 C-10.79320155 11.96977669 -10.47322447 9.51618801 -10.34765625 6.1640625 C-10 4 -10 4 -8.375 1.4375 C-5.25576511 -0.45045796 -3.59388548 -0.58675681 0 0 Z " fill="#1A395D" transform="translate(57,26)"/>
<path d="M0 0 C0.99 0.33 1.98 0.66 3 1 C2.20311699 6.87445806 -0.78971606 10.02223667 -5 14 C-10.55988858 18 -10.55988858 18 -14 18 C-14.39263804 7.98773006 -14.39263804 7.98773006 -12 4 C-8.16814342 -0.05081981 -5.47986651 -0.50739505 0 0 Z " fill="#0A8FCF" transform="translate(82,69)"/>
</svg>
